<?xml version="1.0" encoding="utf-8"?>
<!-- Generator: Adobe Illustrator 16.0.0, SVG Export Plug-In . SVG Version: 6.00 Build 0)  -->
<!DOCTYPE svg PUBLIC "-//W3C//DTD SVG 1.1//EN" "http://www.w3.org/Graphics/SVG/1.1/DTD/svg11.dtd">
<svg version="1.1" id="Layer_1" xmlns="http://www.w3.org/2000/svg" xmlns:xlink="http://www.w3.org/1999/xlink" x="0px" y="0px"
	 width="247.298px" height="254.054px" viewBox="0 0 247.298 254.054" enable-background="new 0 0 247.298 254.054"
	 xml:space="preserve">
<line fill="#FFFFFF" stroke="#7F7F7F" stroke-miterlimit="10" x1="122.907" y1="203.44" x2="122.907" y2="59.44"/>
<line fill="#FFFFFF" stroke="#7F7F7F" stroke-miterlimit="10" x1="87.255" y1="95.27" x2="123.255" y2="59.27"/>
<line fill="#FFFFFF" stroke="#7F7F7F" stroke-miterlimit="10" x1="158.642" y1="95.354" x2="122.642" y2="59.354"/>
<line fill="#FFFFFF" stroke="#7F7F7F" stroke-miterlimit="10" x1="87.173" y1="122.717" x2="123.173" y2="86.717"/>
<line fill="#FFFFFF" stroke="#7F7F7F" stroke-miterlimit="10" x1="158.642" y1="122.717" x2="122.642" y2="86.717"/>
<line fill="#FFFFFF" stroke="#7F7F7F" stroke-miterlimit="10" x1="87.173" y1="149.44" x2="123.173" y2="113.44"/>
<line fill="#FFFFFF" stroke="#7F7F7F" stroke-miterlimit="10" x1="158.642" y1="149.44" x2="122.642" y2="113.44"/>
<line fill="#FFFFFF" stroke="#7F7F7F" stroke-miterlimit="10" x1="87.173" y1="176.717" x2="123.173" y2="140.717"/>
<line fill="#FFFFFF" stroke="#7F7F7F" stroke-miterlimit="10" x1="158.642" y1="176.717" x2="122.642" y2="140.717"/>
<polygon fill="#FFFFFF" stroke="#7F7F7F" stroke-miterlimit="10" points="122.972,50.057 118.345,54.813 122.972,59.44 
	127.47,54.749 "/>
<circle fill="none" stroke="#7F7F7F" stroke-miterlimit="10" cx="123.255" cy="128.436" r="103"/>
<path fill="none" d="M234.507,111.885c8.846,61.652-33.968,118.8-95.617,127.64c-61.652,8.843-118.798-33.966-127.64-95.616
	C2.409,82.257,45.217,25.113,106.868,16.269C168.517,7.426,225.662,50.235,234.507,111.885z"/>
<text transform="matrix(0.8288 -0.5595 0.5595 0.8288 61.4082 42.1763)"><tspan x="0" y="0" stroke="#7F7F7F" font-family="'FuturaBT-LightCondensed'" font-size="20.5409">T</tspan><tspan x="11.527" y="0.278" stroke="#7F7F7F" font-family="'FuturaBT-LightCondensed'" font-size="20.5409" rotate="6.543">E</tspan><tspan x="23.793" y="1.987" stroke="#7F7F7F" font-family="'FuturaBT-LightCondensed'" font-size="20.5409" rotate="13.532">R</tspan><tspan x="36.436" y="5.373" stroke="#7F7F7F" font-family="'FuturaBT-LightCondensed'" font-size="20.5409" rotate="20.568">A</tspan><tspan x="48.322" y="10.175" stroke="#7F7F7F" font-family="'FuturaBT-LightCondensed'" font-size="20.5409" rotate="27.412">P</tspan><tspan x="59.472" y="16.32" stroke="#7F7F7F" font-family="'FuturaBT-LightCondensed'" font-size="20.5409" rotate="34.185">E</tspan><tspan x="69.535" y="23.516" stroke="#7F7F7F" font-family="'FuturaBT-LightCondensed'" font-size="20.5409" rotate="41.112">V</tspan><tspan x="79.105" y="32.341" stroke="#7F7F7F" font-family="'FuturaBT-LightCondensed'" font-size="20.5409" rotate="47.841">T</tspan><tspan x="86.654" y="41.083" stroke="#7F7F7F" font-family="'FuturaBT-LightCondensed'" font-size="20.5409" rotate="54.501">S</tspan><tspan x="93.82" y="51.689" stroke="#7F7F7F" font-family="'FuturaBT-LightCondensed'" font-size="20.5409" rotate="61.383">K</tspan><tspan x="99.562" y="62.974" stroke="#7F7F7F" font-family="'FuturaBT-LightCondensed'" font-size="20.5409" rotate="67.421">I</tspan></text>
<path id="krog_4_" fill="none" stroke="#7F7F7F" stroke-miterlimit="10" d="M87.675,235.788
	c-44.549-15.08-76.613-57.225-76.613-106.855c0-32.518,13.764-61.82,35.783-82.404"/>
<path id="krog_1_" fill="none" stroke="#7F7F7F" stroke-miterlimit="10" d="M201.673,47.242
	c21.578,20.546,35.025,49.548,35.025,81.69c0,50.918-33.75,93.957-80.105,107.975"/>
<circle fill="none" cx="123.255" cy="128.71" r="112.791"/>
<text transform="matrix(0.9705 0.2412 -0.2412 0.9705 90.834 244.2231)"><tspan x="0" y="0" stroke="#7F7F7F" font-family="'FuturaBT-LightCondensed'" font-size="20">A</tspan><tspan x="11.987" y="-0.248" stroke="#7F7F7F" font-family="'FuturaBT-LightCondensed'" font-size="20" rotate="-5.387">T</tspan><tspan x="22.654" y="-1.453" stroke="#7F7F7F" font-family="'FuturaBT-LightCondensed'" font-size="20" rotate="-10.73">E</tspan><tspan x="33.969" y="-3.842" stroke="#7F7F7F" font-family="'FuturaBT-LightCondensed'" font-size="20" rotate="-16.014">L</tspan><tspan x="43.859" y="-6.897" stroke="#7F7F7F" font-family="'FuturaBT-LightCondensed'" font-size="20" rotate="-20.849">J</tspan><tspan x="52.93" y="-10.531" stroke="#7F7F7F" font-family="'FuturaBT-LightCondensed'" font-size="20" rotate="-25.963">E</tspan></text>
</svg>
