<?xml version="1.0" encoding="utf-8"?>
<!-- Generator: Adobe Illustrator 16.0.0, SVG Export Plug-In . SVG Version: 6.00 Build 0)  -->
<!DOCTYPE svg PUBLIC "-//W3C//DTD SVG 1.1//EN" "http://www.w3.org/Graphics/SVG/1.1/DTD/svg11.dtd">
<svg version="1.1" id="Layer_1" xmlns="http://www.w3.org/2000/svg" xmlns:xlink="http://www.w3.org/1999/xlink" x="0px" y="0px"
	 width="100px" height="100px" viewBox="0 0 100 100" enable-background="new 0 0 100 100" xml:space="preserve">
<g>
	<path fill="#BFE6ED" d="M-60.385,17.702c0,0-11.061-20.892-24.273-12.903c-13.212,7.987-6.76,18.434-3.994,25.194
		c2.764,6.759,28.267,23.966,28.267,23.966"/>
	<path fill="#BFE6ED" d="M-62.504,17.702c0,0,11.063-20.892,24.275-12.903c13.211,7.987,6.758,18.434,3.994,25.194
		c-2.768,6.757-28.27,23.961-28.27,23.961"/>
</g>
<g>
	<path fill="none" stroke="#000000" stroke-width="3.6072" stroke-miterlimit="10" d="M49.529,44.923
		c0,0-11.061-20.892-24.272-12.903c-13.212,7.987-6.76,18.434-3.994,25.194c2.764,6.759,28.267,23.966,28.267,23.966"/>
	<path fill="none" stroke="#000000" stroke-width="3.6072" stroke-miterlimit="10" d="M47.411,44.923
		c0,0,11.063-20.892,24.274-12.903c13.211,7.987,6.758,18.434,3.995,25.194c-2.769,6.757-28.27,23.961-28.27,23.961"/>
</g>
<circle fill="none" stroke="#000000" stroke-width="3.6072" stroke-miterlimit="10" cx="49.529" cy="49.988" r="47.009"/>
</svg>
