<?xml version="1.0" encoding="utf-8"?>
<!-- Generator: Adobe Illustrator 16.0.0, SVG Export Plug-In . SVG Version: 6.00 Build 0)  -->
<!DOCTYPE svg PUBLIC "-//W3C//DTD SVG 1.1//EN" "http://www.w3.org/Graphics/SVG/1.1/DTD/svg11.dtd">
<svg version="1.1" id="Layer_1" xmlns="http://www.w3.org/2000/svg" xmlns:xlink="http://www.w3.org/1999/xlink" x="0px" y="0px"
	 width="100px" height="100px" viewBox="0 0 100 100" enable-background="new 0 0 100 100" xml:space="preserve">
<g>
	<path fill="#BFE6ED" d="M-60.385,17.702c0,0-11.061-20.892-24.273-12.903c-13.212,7.987-6.76,18.434-3.994,25.194
		c2.764,6.759,28.267,23.966,28.267,23.966"/>
	<path fill="#BFE6ED" d="M-62.504,17.702c0,0,11.063-20.892,24.275-12.903c13.211,7.987,6.758,18.434,3.994,25.194
		c-2.768,6.757-28.27,23.961-28.27,23.961"/>
</g>
<g>
	<path fill="none" stroke="#000000" stroke-width="2" stroke-miterlimit="10" d="M51.059,43.192c0,0-11.061-20.892-24.273-12.903
		c-13.211,7.987-6.759,18.434-3.994,25.194c2.764,6.759,28.267,23.966,28.267,23.966"/>
	<path fill="none" stroke="#000000" stroke-width="2" stroke-miterlimit="10" d="M48.939,43.192c0,0,11.063-20.892,24.275-12.903
		c13.211,7.987,6.758,18.434,3.994,25.194c-2.768,6.757-28.27,23.961-28.27,23.961"/>
</g>
<g>
	<path fill="none" stroke="#000000" stroke-width="2" stroke-miterlimit="10" d="M-20.786-54.181c0,0-25.406,29.258-19.608,44.066
		c5.798,14.81,19.608,13.025,19.608,13.025"/>
	<path fill="none" stroke="#000000" stroke-width="2" stroke-miterlimit="10" d="M-23.463-54.181c0,0,25.406,29.258,19.608,44.066
		C-9.653,4.695-23.463,2.911-23.463,2.911"/>
</g>
</svg>
