<?xml version="1.0" encoding="utf-8"?>
<!-- Generator: Adobe Illustrator 16.0.0, SVG Export Plug-In . SVG Version: 6.00 Build 0)  -->
<!DOCTYPE svg PUBLIC "-//W3C//DTD SVG 1.1//EN" "http://www.w3.org/Graphics/SVG/1.1/DTD/svg11.dtd">
<svg version="1.1" id="Layer_1" xmlns="http://www.w3.org/2000/svg" xmlns:xlink="http://www.w3.org/1999/xlink" x="0px" y="0px"
	 width="164px" height="166.111px" viewBox="0 0 164 166.111" enable-background="new 0 0 164 166.111" xml:space="preserve">
<circle cx="83.389" cy="82.389" r="78.389"/>
<g>
	
		<line fill="#FFFFFF" stroke="#FFFFFF" stroke-width="2.4809" stroke-miterlimit="10" x1="83.389" y1="136.393" x2="83.389" y2="34.99"/>
	
		<line fill="#FFFFFF" stroke="#FFFFFF" stroke-width="2.4809" stroke-miterlimit="10" x1="58.283" y1="60.221" x2="83.633" y2="34.87"/>
	
		<line fill="#FFFFFF" stroke="#FFFFFF" stroke-width="2.4809" stroke-miterlimit="10" x1="108.552" y1="60.28" x2="83.201" y2="34.929"/>
	
		<line fill="#FFFFFF" stroke="#FFFFFF" stroke-width="2.4809" stroke-miterlimit="10" x1="58.226" y1="79.549" x2="83.576" y2="54.199"/>
	
		<line fill="#FFFFFF" stroke="#FFFFFF" stroke-width="2.4809" stroke-miterlimit="10" x1="108.552" y1="79.549" x2="83.201" y2="54.199"/>
	
		<line fill="#FFFFFF" stroke="#FFFFFF" stroke-width="2.4809" stroke-miterlimit="10" x1="58.226" y1="98.366" x2="83.576" y2="73.016"/>
	
		<line fill="#FFFFFF" stroke="#FFFFFF" stroke-width="2.4809" stroke-miterlimit="10" x1="108.552" y1="98.366" x2="83.201" y2="73.016"/>
	
		<line fill="#FFFFFF" stroke="#FFFFFF" stroke-width="2.4809" stroke-miterlimit="10" x1="58.226" y1="117.575" x2="83.576" y2="92.225"/>
	
		<line fill="#FFFFFF" stroke="#FFFFFF" stroke-width="2.4809" stroke-miterlimit="10" x1="108.552" y1="117.575" x2="83.201" y2="92.225"/>
	<polygon fill="none" stroke="#FFFFFF" stroke-width="2.4809" stroke-miterlimit="10" points="83.434,28.383 80.175,31.732 
		83.434,34.99 86.602,31.687 	"/>
</g>
<path fill="none" d="M858.283-159.352c-12.837-104.919-108.292-179.566-213.215-166.729
	c-104.919,12.837-179.567,108.297-166.73,213.216C491.175-7.945,586.636,66.699,691.555,53.862
	C796.478,41.025,871.121-54.432,858.283-159.352z"/>
<text transform="matrix(0.9609 0.277 -0.277 0.9609 605.0332 44.8501)"><tspan x="0" y="0" font-family="'OpenSans-Light'" font-size="36">A</tspan><tspan x="23.462" y="-0.188" font-family="'OpenSans-Light'" font-size="36" rotate="-6.658">T</tspan><tspan x="43.929" y="-2.648" font-family="'OpenSans-Light'" font-size="36" rotate="-13.015">E</tspan><tspan x="64.936" y="-7.642" font-family="'OpenSans-Light'" font-size="36" rotate="-19.256">L</tspan><tspan x="83.404" y="-14.306" font-family="'OpenSans-Light'" font-size="36" rotate="-23.986">J</tspan><tspan x="92.745" y="-18.234" font-family="'OpenSans-Light'" font-size="36" rotate="-28.246">E</tspan></text>
<path fill="none" d="M764.989-98.354c-6.902,82.822-79.635,144.363-162.459,137.46c-82.82-6.903-144.365-79.637-137.462-162.458
	c6.903-82.821,79.64-144.365,162.46-137.462C710.353-253.91,771.894-181.175,764.989-98.354z"/>
<text transform="matrix(0.6331 -0.7741 0.7741 0.6331 492.4551 -198.7734)"><tspan x="0" y="0" font-family="'OpenSans-Light'" font-size="36">T</tspan><tspan x="25.017" y="0.479" font-family="'OpenSans-Light'" font-size="36" rotate="9.663">E</tspan><tspan x="50.565" y="5.31" font-family="'OpenSans-Light'" font-size="36" rotate="19.787">R</tspan><tspan x="76.245" y="15.132" font-family="'OpenSans-Light'" font-size="36" rotate="30.292">A</tspan><tspan x="99.867" y="29.607" font-family="'OpenSans-Light'" font-size="36" rotate="40.799">P</tspan><tspan x="120.036" y="47.807" font-family="'OpenSans-Light'" font-size="36" rotate="50.929">E</tspan><tspan x="136.058" y="68.331" font-family="'OpenSans-Light'" font-size="36" rotate="60.877">V</tspan><tspan x="148.621" y="92.131" font-family="'OpenSans-Light'" font-size="36" rotate="70.783">T</tspan><tspan x="156.396" y="115.943" font-family="'OpenSans-Light'" font-size="36" rotate="80.524">S</tspan><tspan x="160.156" y="141.403" font-family="'OpenSans-Light'" font-size="36" rotate="90.57">K</tspan><tspan x="159.021" y="168.611" font-family="'OpenSans-Light'" font-size="36" rotate="98.649">I</tspan></text>
<circle fill="none" stroke="#FFFFFF" stroke-width="3.1011" stroke-miterlimit="10" cx="83.389" cy="82.389" r="67.58"/>
</svg>
