<?xml version="1.0" encoding="utf-8"?>
<!-- Generator: Adobe Illustrator 16.0.0, SVG Export Plug-In . SVG Version: 6.00 Build 0)  -->
<!DOCTYPE svg PUBLIC "-//W3C//DTD SVG 1.1//EN" "http://www.w3.org/Graphics/SVG/1.1/DTD/svg11.dtd">
<svg version="1.1" id="Layer_1" xmlns="http://www.w3.org/2000/svg" xmlns:xlink="http://www.w3.org/1999/xlink" x="0px" y="0px"
	 width="393.334px" height="393.111px" viewBox="0 0 393.334 393.111" enable-background="new 0 0 393.334 393.111"
	 xml:space="preserve">
<g>
	
		<line fill="#FFFFFF" stroke="#000000" stroke-width="4" stroke-miterlimit="10" x1="196.39" y1="328.242" x2="196.39" y2="80.664"/>
	
		<line fill="#FFFFFF" stroke="#000000" stroke-width="4" stroke-miterlimit="10" x1="135.092" y1="142.266" x2="196.986" y2="80.372"/>
	
		<line fill="#FFFFFF" stroke="#000000" stroke-width="4" stroke-miterlimit="10" x1="257.828" y1="142.41" x2="195.932" y2="80.515"/>
	
		<line fill="#FFFFFF" stroke="#000000" stroke-width="4" stroke-miterlimit="10" x1="134.952" y1="189.457" x2="196.846" y2="127.563"/>
	
		<line fill="#FFFFFF" stroke="#000000" stroke-width="4" stroke-miterlimit="10" x1="257.828" y1="189.457" x2="195.932" y2="127.563"/>
	
		<line fill="#FFFFFF" stroke="#000000" stroke-width="4" stroke-miterlimit="10" x1="134.952" y1="235.4" x2="196.846" y2="173.504"/>
	
		<line fill="#FFFFFF" stroke="#000000" stroke-width="4" stroke-miterlimit="10" x1="257.828" y1="235.4" x2="195.932" y2="173.504"/>
	
		<line fill="#FFFFFF" stroke="#000000" stroke-width="4" stroke-miterlimit="10" x1="134.952" y1="282.299" x2="196.846" y2="220.404"/>
	
		<line fill="#FFFFFF" stroke="#000000" stroke-width="4" stroke-miterlimit="10" x1="257.828" y1="282.299" x2="195.932" y2="220.404"/>
	<polygon fill="none" stroke="#000000" stroke-width="4" stroke-miterlimit="10" points="196.499,64.534 188.544,72.708 
		196.499,80.664 204.234,72.598 	"/>
</g>
<path fill="none" stroke="#000000" stroke-width="4" stroke-miterlimit="10" d="M387.779,196.389
	c0,105.702-85.684,191.388-191.388,191.388C90.689,387.776,5,302.091,5,196.389C5,90.688,90.689,5,196.391,5
	C302.095,5,387.779,90.688,387.779,196.389z"/>
<circle fill="none" cx="196.389" cy="196.556" r="150.48"/>
<text transform="matrix(0.6488 -0.761 0.761 0.6488 75.6597 106.1997)"><tspan x="0" y="0" font-family="'OpenSans-Light'" font-size="36">T</tspan><tspan x="25.018" y="0.479" font-family="'OpenSans-Light'" font-size="36" rotate="9.663">E</tspan><tspan x="50.566" y="5.31" font-family="'OpenSans-Light'" font-size="36" rotate="19.787">R</tspan><tspan x="76.247" y="15.132" font-family="'OpenSans-Light'" font-size="36" rotate="30.292">A</tspan><tspan x="99.869" y="29.607" font-family="'OpenSans-Light'" font-size="36" rotate="40.799">P</tspan><tspan x="120.037" y="47.807" font-family="'OpenSans-Light'" font-size="36" rotate="50.929">E</tspan><tspan x="136.06" y="68.33" font-family="'OpenSans-Light'" font-size="36" rotate="60.876">V</tspan><tspan x="148.622" y="92.13" font-family="'OpenSans-Light'" font-size="36" rotate="70.782">T</tspan><tspan x="156.39" y="115.915" font-family="'OpenSans-Light'" font-size="36" rotate="80.512">S</tspan><tspan x="160.157" y="141.403" font-family="'OpenSans-Light'" font-size="36" rotate="90.57">K</tspan><tspan x="159.023" y="168.612" font-family="'OpenSans-Light'" font-size="36" rotate="98.649">I</tspan></text>
<path fill="none" d="M346.733,233.134c3.533-83.032-60.91-153.207-143.945-156.741C119.755,72.86,49.579,137.305,46.045,220.336
	c-3.535,83.037,60.914,153.208,143.945,156.742C273.025,380.612,343.198,316.17,346.733,233.134z"/>
<text transform="matrix(0.897 0.4421 -0.4421 0.897 120.2236 357.0029)"><tspan x="0" y="0" font-family="'OpenSans-Light'" font-size="36">A</tspan><tspan x="32.036" y="-1.216" font-family="'OpenSans-Light'" font-size="36" rotate="-11.767">T</tspan><tspan x="60.378" y="-8.146" font-family="'OpenSans-Light'" font-size="36" rotate="-22.874">E</tspan><tspan x="87.695" y="-20.868" font-family="'OpenSans-Light'" font-size="36" rotate="-34.143">L</tspan><tspan x="110.316" y="-37.57" font-family="'OpenSans-Light'" font-size="36" rotate="-43.096">J</tspan><tspan x="123.717" y="-50.586" font-family="'OpenSans-Light'" font-size="36" rotate="-52.336">E</tspan></text>
<path fill="none" d="M858.283,67.648C845.446-37.271,749.991-111.918,645.068-99.081C540.149-86.244,465.501,9.216,478.338,114.135
	c12.837,104.92,108.298,179.564,213.217,166.727C796.478,268.025,871.121,172.568,858.283,67.648z"/>
<text transform="matrix(0.9609 0.277 -0.277 0.9609 604.9844 271.8691)"><tspan x="0" y="0" font-family="'OpenSans-Light'" font-size="36">A</tspan><tspan x="23.461" y="-0.188" font-family="'OpenSans-Light'" font-size="36" rotate="-6.658">T</tspan><tspan x="43.946" y="-2.65" font-family="'OpenSans-Light'" font-size="36" rotate="-13.02">E</tspan><tspan x="64.935" y="-7.642" font-family="'OpenSans-Light'" font-size="36" rotate="-19.256">L</tspan><tspan x="83.404" y="-14.306" font-family="'OpenSans-Light'" font-size="36" rotate="-23.986">J</tspan><tspan x="92.744" y="-18.234" font-family="'OpenSans-Light'" font-size="36" rotate="-28.246">E</tspan></text>
<path fill="none" d="M764.989,128.646c-6.902,82.822-79.635,144.363-162.459,137.46c-82.82-6.903-144.365-79.637-137.462-162.458
	c6.903-82.821,79.64-144.365,162.46-137.462C710.353-26.91,771.894,45.825,764.989,128.646z"/>
<text transform="matrix(0.6331 -0.7741 0.7741 0.6331 492.4824 28.271)"><tspan x="0" y="0" font-family="'OpenSans-Light'" font-size="36">T</tspan><tspan x="25.018" y="0.479" font-family="'OpenSans-Light'" font-size="36" rotate="9.663">E</tspan><tspan x="50.566" y="5.31" font-family="'OpenSans-Light'" font-size="36" rotate="19.787">R</tspan><tspan x="76.246" y="15.132" font-family="'OpenSans-Light'" font-size="36" rotate="30.292">A</tspan><tspan x="99.868" y="29.607" font-family="'OpenSans-Light'" font-size="36" rotate="40.799">P</tspan><tspan x="120.038" y="47.807" font-family="'OpenSans-Light'" font-size="36" rotate="50.929">E</tspan><tspan x="136.06" y="68.331" font-family="'OpenSans-Light'" font-size="36" rotate="60.877">V</tspan><tspan x="148.622" y="92.131" font-family="'OpenSans-Light'" font-size="36" rotate="70.783">T</tspan><tspan x="156.397" y="115.943" font-family="'OpenSans-Light'" font-size="36" rotate="80.524">S</tspan><tspan x="160.156" y="141.403" font-family="'OpenSans-Light'" font-size="36" rotate="90.57">K</tspan><tspan x="159.022" y="168.613" font-family="'OpenSans-Light'" font-size="36" rotate="98.649">I</tspan></text>
<path fill="none" stroke="#000000" stroke-width="1.2306" stroke-miterlimit="10" d="M60.173,104.199
	c-18.088,26.25-28.674,57.992-28.674,92.19c0,60.97,33.63,114.142,83.488,142.273"/>
<path fill="none" stroke="#000000" stroke-width="1.2306" stroke-miterlimit="10" d="M277.792,338.663
	c49.857-28.133,83.487-81.305,83.487-142.274c0-34.198-10.585-65.939-28.673-92.19"/>
</svg>
