<?xml version="1.0" encoding="utf-8"?>
<!-- Generator: Adobe Illustrator 16.0.0, SVG Export Plug-In . SVG Version: 6.00 Build 0)  -->
<!DOCTYPE svg PUBLIC "-//W3C//DTD SVG 1.1//EN" "http://www.w3.org/Graphics/SVG/1.1/DTD/svg11.dtd">
<svg version="1.1" id="Layer_1" xmlns="http://www.w3.org/2000/svg" xmlns:xlink="http://www.w3.org/1999/xlink" x="0px" y="0px"
	 width="393.334px" height="393.111px" viewBox="0 0 393.334 393.111" enable-background="new 0 0 393.334 393.111"
	 xml:space="preserve">
<g>
	<line fill="none" stroke="#000000" stroke-width="4" stroke-miterlimit="10" x1="196.39" y1="328.242" x2="196.39" y2="80.664"/>
	<line fill="none" stroke="#000000" stroke-width="4" stroke-miterlimit="10" x1="135.092" y1="142.266" x2="196.986" y2="80.372"/>
	<line fill="none" stroke="#000000" stroke-width="4" stroke-miterlimit="10" x1="257.828" y1="142.41" x2="195.932" y2="80.515"/>
	
		<line fill="none" stroke="#000000" stroke-width="4" stroke-miterlimit="10" x1="134.952" y1="189.457" x2="196.846" y2="127.563"/>
	
		<line fill="none" stroke="#000000" stroke-width="4" stroke-miterlimit="10" x1="257.828" y1="189.457" x2="195.932" y2="127.563"/>
	<line fill="none" stroke="#000000" stroke-width="4" stroke-miterlimit="10" x1="134.952" y1="235.4" x2="196.846" y2="173.504"/>
	<line fill="none" stroke="#000000" stroke-width="4" stroke-miterlimit="10" x1="257.828" y1="235.4" x2="195.932" y2="173.504"/>
	
		<line fill="none" stroke="#000000" stroke-width="4" stroke-miterlimit="10" x1="134.952" y1="282.299" x2="196.846" y2="220.404"/>
	
		<line fill="none" stroke="#000000" stroke-width="4" stroke-miterlimit="10" x1="257.828" y1="282.299" x2="195.932" y2="220.404"/>
	<polygon fill="none" stroke="#000000" stroke-width="4" stroke-miterlimit="10" points="196.499,64.534 188.544,72.708 
		196.499,80.664 204.233,72.598 	"/>
</g>
<path fill="none" stroke="#000000" stroke-width="4" stroke-miterlimit="10" d="M387.778,196.389
	c0,105.702-85.684,191.388-191.387,191.388C90.689,387.776,5,302.092,5,196.389C5,90.688,90.689,5,196.391,5
	C302.095,5,387.778,90.688,387.778,196.389z"/>
<g>
	<path stroke="#000000" stroke-miterlimit="10" d="M82.365,98.334l-1.175,1.377L62.918,84.134l-5.417,6.354l-1.285-1.095
		l12.009-14.086l1.284,1.095l-5.417,6.354L82.365,98.334z"/>
	<path stroke="#000000" stroke-miterlimit="10" d="M105.822,76.131l-10.775,9.009L78.565,65.42l10.776-9.008l1.061,1.269L81,65.538
		l6.234,7.459l8.874-7.418l1.061,1.269l-8.875,7.418l7.068,8.457l9.4-7.857L105.822,76.131z"/>
	<path stroke="#000000" stroke-miterlimit="10" d="M111.662,58.749l5.559,9.721l-1.557,0.891L102.906,47.05l5.311-3.036
		c2.766-1.582,5.104-2.241,7.009-1.976c1.908,0.268,3.45,1.427,4.624,3.481c0.855,1.495,1.183,2.981,0.982,4.461
		c-0.2,1.479-0.977,2.899-2.328,4.268l11.87,6.698l-1.861,1.064l-11.312-6.431L111.662,58.749z M110.894,57.406l4.258-2.435
		c1.881-1.076,3.102-2.331,3.66-3.765c0.557-1.433,0.367-2.968-0.569-4.604c-0.971-1.699-2.187-2.645-3.646-2.836
		c-1.46-0.19-3.338,0.371-5.638,1.686l-3.692,2.112L110.894,57.406z"/>
	<path stroke="#000000" stroke-miterlimit="10" d="M148.767,44.149l-9.857,3.444l-0.393,9.744l-1.875,0.655l1.246-27.77l1.079-0.377
		l18.07,21.021l-1.908,0.667L148.767,44.149z M138.99,45.852l8.679-3.032l-6.358-7.592c-0.516-0.589-1.181-1.425-1.993-2.507
		c0.072,1.167,0.083,2.243,0.03,3.229L138.99,45.852z"/>
	<path stroke="#000000" stroke-miterlimit="10" d="M179.08,28.399c0.377,2.455-0.167,4.466-1.633,6.031
		c-1.467,1.564-3.729,2.583-6.786,3.055l-3.926,0.604l1.615,10.493l-1.772,0.272l-3.91-25.399l6.22-0.958
		C174.933,21.567,178.331,23.534,179.08,28.399z M166.5,36.56l3.491-0.538c2.861-0.439,4.855-1.23,5.984-2.37
		c1.128-1.141,1.53-2.771,1.204-4.89c-0.301-1.957-1.127-3.315-2.477-4.074c-1.35-0.758-3.288-0.943-5.813-0.556l-4.205,0.647
		L166.5,36.56z"/>
	<path stroke="#000000" stroke-miterlimit="10" d="M207.595,46.294l-14.041-0.339l0.618-25.69l14.041,0.338l-0.04,1.65
		l-12.249-0.294l-0.234,9.719l11.563,0.277l-0.04,1.651l-11.562-0.278l-0.266,11.02l12.248,0.295L207.595,46.294z"/>
	<path stroke="#000000" stroke-miterlimit="10" d="M239.437,25.489l1.912,0.383l-14.475,23.312l-1.55-0.312l-4.347-27.08
		l1.877,0.376l2.91,18.42c0.446,2.779,0.707,4.852,0.779,6.217c0.404-0.815,1.125-2.063,2.167-3.743L239.437,25.489z"/>
	<path stroke="#000000" stroke-miterlimit="10" d="M251.824,56.614l-1.688-0.655l8.696-22.383l-7.783-3.022l0.611-1.573
		l17.253,6.703l-0.611,1.572l-7.783-3.022L251.824,56.614z"/>
	<path stroke="#000000" stroke-miterlimit="10" d="M284.022,65.877c-1.103,1.838-2.652,2.892-4.648,3.154
		c-1.998,0.265-4.116-0.275-6.357-1.62c-2.691-1.615-4.578-3.149-5.66-4.605l0.922-1.537c1.185,1.627,3.007,3.178,5.47,4.653
		c1.808,1.086,3.491,1.531,5.049,1.34c1.558-0.193,2.74-0.964,3.55-2.311c0.498-0.834,0.738-1.631,0.715-2.389
		c-0.022-0.76-0.295-1.604-0.819-2.531c-0.522-0.929-1.396-2.115-2.62-3.561c-1.787-2.124-2.84-3.895-3.159-5.309
		c-0.319-1.415-0.03-2.871,0.868-4.369c0.988-1.647,2.439-2.604,4.355-2.87c1.916-0.265,3.889,0.211,5.918,1.43
		c2.069,1.242,3.779,2.801,5.127,4.676l-1.353,0.992c-1.371-1.861-2.892-3.292-4.558-4.293c-1.629-0.978-3.151-1.378-4.568-1.202
		c-1.417,0.175-2.516,0.91-3.292,2.206c-0.487,0.813-0.741,1.572-0.757,2.271c-0.02,0.7,0.186,1.462,0.607,2.282
		s1.278,2.015,2.567,3.58c1.363,1.624,2.31,2.974,2.839,4.05c0.528,1.076,0.779,2.088,0.752,3.034
		C284.942,63.896,284.626,64.872,284.022,65.877z"/>
	<path stroke="#000000" stroke-miterlimit="10" d="M302.952,89.787l-1.657-1.44l1.465-16.711l-4.569,0.03l-6.922,7.958l-1.353-1.177
		l16.866-19.39l1.353,1.176l-8.769,10.08l4.018-0.279l14.499-1.321l1.724,1.5l-15.072,1.286L302.952,89.787z"/>
	<path stroke="#000000" stroke-miterlimit="10" d="M309.522,97.325l19.424-16.827l1.175,1.354L310.696,98.68L309.522,97.325z"/>
</g>
<g>
	<path stroke="#000000" stroke-miterlimit="10" d="M138.598,355.947l-9.366-4.616l-7.227,6.551l-1.781-0.878l20.679-18.576
		l1.025,0.506l-2.327,27.621l-1.814-0.894L138.598,355.947z M130.531,350.169l8.246,4.063l0.958-9.855
		c0.059-0.781,0.188-1.841,0.392-3.179c-0.782,0.869-1.543,1.631-2.283,2.285L130.531,350.169z"/>
	<path stroke="#000000" stroke-miterlimit="10" d="M159.504,372.66l-1.752-0.454l6-23.247l-8.085-2.088l0.421-1.635l17.923,4.627
		l-0.421,1.633l-8.085-2.086L159.504,372.66z"/>
	<path stroke="#000000" stroke-miterlimit="10" d="M195.634,377.43l-14.021-0.824l1.508-25.654l14.021,0.824l-0.097,1.649
		l-12.232-0.721l-0.57,9.704l11.546,0.68l-0.097,1.649l-11.546-0.679l-0.646,11.002l12.23,0.72L195.634,377.43z"/>
	<path stroke="#000000" stroke-miterlimit="10" d="M211.711,376.557l-3.532-25.454l1.775-0.247l3.301,23.784l12.137-1.687
		l0.231,1.674L211.711,376.557z"/>
	<path stroke="#000000" stroke-miterlimit="10" d="M237.108,378.453c-1.032,0.313-1.924,0.417-2.678,0.315l-0.449-1.479
		c0.942-0.041,1.813-0.182,2.608-0.424c2.714-0.821,3.623-2.714,2.726-5.675l-7.502-24.763l1.715-0.521l7.453,24.596
		C242.235,374.641,240.942,377.291,237.108,378.453z"/>
	<path stroke="#000000" stroke-miterlimit="10" d="M269.438,358.55l-12.613,6.179l-11.305-23.079l12.612-6.179l0.728,1.483
		l-11.004,5.391l4.276,8.729l10.388-5.088l0.728,1.483l-10.388,5.089l4.848,9.896l11.002-5.389L269.438,358.55z"/>
</g>
<path fill="none" d="M858.282,67.648C845.446-37.271,749.991-111.918,645.067-99.081C540.149-86.244,465.501,9.216,478.339,114.135
	c12.836,104.92,108.297,179.563,213.217,166.727C796.478,268.025,871.12,172.568,858.282,67.648z"/>
<path fill="none" d="M764.989,128.646c-6.902,82.821-79.635,144.362-162.459,137.46c-82.82-6.903-144.365-79.637-137.463-162.458
	c6.904-82.821,79.641-144.365,162.461-137.462C710.353-26.91,771.894,45.825,764.989,128.646z"/>
<path fill="none" stroke="#000000" stroke-width="1.2306" stroke-miterlimit="10" d="M60.173,104.199
	c-18.088,26.25-28.674,57.992-28.674,92.19c0,60.97,33.63,114.142,83.488,142.272"/>
<path fill="none" stroke="#000000" stroke-width="1.2306" stroke-miterlimit="10" d="M277.792,338.663
	c49.857-28.133,83.486-81.305,83.486-142.273c0-34.198-10.584-65.939-28.672-92.19"/>
</svg>
