<?xml version="1.0" encoding="utf-8"?>
<!-- Generator: Adobe Illustrator 16.0.0, SVG Export Plug-In . SVG Version: 6.00 Build 0)  -->
<!DOCTYPE svg PUBLIC "-//W3C//DTD SVG 1.1//EN" "http://www.w3.org/Graphics/SVG/1.1/DTD/svg11.dtd">
<svg version="1.1" id="Layer_1" xmlns="http://www.w3.org/2000/svg" xmlns:xlink="http://www.w3.org/1999/xlink" x="0px" y="0px"
	 width="1011.167px" height="358.056px" viewBox="0 35.055 1011.167 358.056" enable-background="new 0 35.055 1011.167 358.056"
	 xml:space="preserve">
<g>
	
		<line fill="none" stroke="#000000" stroke-width="5.794" stroke-miterlimit="10" x1="176.674" y1="334.375" x2="176.674" y2="112.301"/>
	
		<line fill="none" stroke="#000000" stroke-width="5.794" stroke-miterlimit="10" x1="121.69" y1="167.556" x2="177.209" y2="112.038"/>
	
		<line fill="none" stroke="#000000" stroke-width="5.794" stroke-miterlimit="10" x1="231.784" y1="167.686" x2="176.264" y2="112.166"/>
	
		<line fill="none" stroke="#000000" stroke-width="5.794" stroke-miterlimit="10" x1="121.565" y1="209.885" x2="177.083" y2="154.369"/>
	
		<line fill="none" stroke="#000000" stroke-width="5.794" stroke-miterlimit="10" x1="231.784" y1="209.885" x2="176.264" y2="154.369"/>
	
		<line fill="none" stroke="#000000" stroke-width="5.794" stroke-miterlimit="10" x1="121.565" y1="251.096" x2="177.083" y2="195.575"/>
	
		<line fill="none" stroke="#000000" stroke-width="5.794" stroke-miterlimit="10" x1="231.784" y1="251.096" x2="176.264" y2="195.575"/>
	
		<line fill="none" stroke="#000000" stroke-width="5.794" stroke-miterlimit="10" x1="121.565" y1="293.165" x2="177.083" y2="237.646"/>
	
		<line fill="none" stroke="#000000" stroke-width="5.794" stroke-miterlimit="10" x1="231.784" y1="293.165" x2="176.264" y2="237.646"/>
	<polygon fill="none" stroke="#000000" stroke-width="5.794" stroke-miterlimit="10" points="176.772,97.833 169.636,105.164 
		176.772,112.301 183.71,105.065 	"/>
</g>
<path fill="none" stroke="#000000" stroke-width="7.7253" stroke-miterlimit="10" d="M348.347,216.104
	c0,94.814-76.856,171.673-171.671,171.673C81.861,387.777,5,310.919,5,216.104C5,121.292,81.861,44.43,176.675,44.43
	C271.49,44.43,348.347,121.292,348.347,216.104z"/>
<circle fill="none" stroke="#000000" stroke-width="3.8627" stroke-miterlimit="10" cx="176.674" cy="216.104" r="148.003"/>
<g>
	<path d="M689.654-53.108h-8.337v-64.288h-22.704v-7.405h53.745v7.405h-22.704V-53.108z"/>
	<path d="M763.113-53.108h-39.967v-71.693h39.967v7.405h-31.63V-94.3H761.2v7.355h-29.717v26.381h31.63V-53.108z"/>
	<path d="M787.336-82.924v29.815h-8.335v-71.693h19.664c8.794,0,15.291,1.683,19.492,5.05c4.2,3.368,6.301,8.435,6.301,15.202
		c0,9.482-4.806,15.889-14.415,19.224l19.467,32.217h-9.857l-17.359-29.815H787.336z M787.336-90.083h11.427
		c5.884,0,10.2-1.169,12.946-3.506c2.745-2.337,4.119-5.843,4.119-10.519c0-4.739-1.398-8.157-4.192-10.248
		c-2.796-2.091-7.282-3.138-13.46-3.138h-10.84V-90.083z"/>
	<path d="M886.148-53.108l-8.925-22.803h-28.737l-8.825,22.803h-8.435l28.342-71.987h7.014l28.196,71.987H886.148z M874.625-83.414
		l-8.337-22.213c-1.079-2.812-2.189-6.26-3.336-10.348c-0.717,3.14-1.747,6.589-3.088,10.348l-8.436,22.213H874.625z"/>
	<path d="M950.094-103.912c0,7.258-2.477,12.84-7.429,16.746c-4.953,3.908-12.04,5.86-21.259,5.86h-8.435v28.198h-8.337v-71.693
		h18.587C941.136-124.802,950.094-117.839,950.094-103.912z M912.972-88.466h7.503c7.387,0,12.732-1.192,16.034-3.579
		c3.304-2.386,4.953-6.211,4.953-11.475c0-4.74-1.552-8.271-4.657-10.592c-3.107-2.322-7.945-3.482-14.517-3.482h-9.316V-88.466z"/>
	<path d="M1005.063-53.108H965.1v-71.693h39.964v7.405h-31.628V-94.3h29.717v7.355h-29.717v26.381h31.628V-53.108z"/>
	<path d="M1061.899-124.802h8.974l-25.843,71.693h-8.238l-25.696-71.693h8.826l16.478,46.39c1.896,5.328,3.399,10.51,4.511,15.544
		c1.178-5.296,2.715-10.576,4.61-15.84L1061.899-124.802z"/>
	<path d="M1102.796-53.108h-8.337v-64.288h-22.704v-7.405h53.745v7.405h-22.704V-53.108z"/>
	<path d="M1176.745-72.185c0,6.311-2.288,11.229-6.866,14.762c-4.577,3.53-10.787,5.295-18.635,5.295
		c-8.5,0-15.037-1.096-19.614-3.285v-8.042c2.943,1.244,6.147,2.224,9.612,2.942c3.465,0.72,6.896,1.078,10.298,1.078
		c5.558,0,9.741-1.054,12.554-3.162c2.811-2.108,4.217-5.044,4.217-8.803c0-2.484-0.498-4.52-1.496-6.104
		c-0.998-1.586-2.664-3.048-5.002-4.389c-2.337-1.341-5.892-2.861-10.665-4.561c-6.669-2.386-11.434-5.215-14.295-8.483
		c-2.861-3.268-4.29-7.535-4.29-12.798c0-5.525,2.076-9.923,6.228-13.191c4.15-3.27,9.644-4.905,16.477-4.905
		c7.128,0,13.681,1.307,19.664,3.923l-2.6,7.258c-5.916-2.485-11.67-3.728-17.261-3.728c-4.413,0-7.862,0.948-10.348,2.844
		c-2.483,1.896-3.726,4.527-3.726,7.895c0,2.485,0.458,4.519,1.372,6.105c0.916,1.586,2.459,3.042,4.635,4.365
		c2.174,1.324,5.499,2.788,9.979,4.388c7.521,2.681,12.694,5.56,15.52,8.632C1175.33-81.077,1176.745-77.088,1176.745-72.185z"/>
	<path d="M1243.191-53.108h-9.809l-26.137-34.768l-7.504,6.669v28.099h-8.336v-71.693h8.336v35.551l32.514-35.551h9.855
		l-28.834,31.139L1243.191-53.108z"/>
	<path d="M1253.047-53.108v-71.693h8.337v71.693H1253.047z"/>
</g>
<g>
	<path d="M699.138,662.097l-5.198-17.064h-26.137l-5.198,17.064h-16.379l25.303-71.986h18.586l25.401,71.986H699.138z
		 M690.31,632.282c-4.805-15.463-7.509-24.207-8.115-26.234c-0.604-2.027-1.037-3.629-1.299-4.806
		c-1.079,4.186-4.169,14.532-9.269,31.04H690.31z"/>
	<path d="M808.438,662.097h-15.202v-59.042h-19.467v-12.651h54.136v12.651h-19.467V662.097z"/>
	<path d="M936.47,662.097h-41.291v-71.693h41.291v12.456h-26.091v15.741h24.275v12.455h-24.275v18.488h26.091V662.097z"/>
	<path d="M1007.665,662.097v-71.693h15.201v59.141h29.079v12.553H1007.665z"/>
	<path d="M1113.14,683.184c-3.434,0-6.425-0.361-8.974-1.08v-12.651c2.616,0.654,5.001,0.981,7.159,0.981
		c3.334,0,5.721-1.037,7.159-3.114c1.439-2.076,2.158-5.32,2.158-9.734v-67.182h15.201v67.084c0,8.368-1.913,14.743-5.737,19.124
		C1126.28,680.995,1120.624,683.184,1113.14,683.184z"/>
	<path d="M1251.418,662.097h-41.29v-71.693h41.29v12.456h-26.088v15.741h24.273v12.455h-24.273v18.488h26.088V662.097z"/>
</g>
<g>
	<path d="M394.261,205.229h-6.201v-47.82h-16.889v-5.508h39.978v5.508h-16.888V205.229z"/>
	<path d="M463.842,205.229h-29.728v-53.328h29.728v5.508h-23.527v17.18h22.104v5.471h-22.104v19.624h23.527V205.229z"/>
	<path d="M496.801,183.052v22.177h-6.2v-53.328h14.626c6.542,0,11.375,1.252,14.5,3.757c3.124,2.505,4.687,6.274,4.687,11.308
		c0,7.052-3.574,11.818-10.724,14.298l14.48,23.965h-7.331l-12.913-22.177H496.801z M496.801,177.726h8.499
		c4.377,0,7.587-0.869,9.63-2.608c2.043-1.738,3.063-4.346,3.063-7.824c0-3.525-1.039-6.067-3.118-7.624
		c-2.079-1.556-5.417-2.334-10.013-2.334h-8.062V177.726z"/>
	<path d="M585.24,205.229l-6.638-16.961h-21.375l-6.566,16.961h-6.273l21.083-53.546h5.216l20.974,53.546H585.24z M576.669,182.687
		l-6.201-16.523c-0.803-2.091-1.629-4.657-2.48-7.697c-0.535,2.334-1.301,4.9-2.298,7.697l-6.273,16.523H576.669z"/>
	<path d="M647.746,167.44c0,5.398-1.842,9.551-5.525,12.457c-3.685,2.906-8.955,4.359-15.813,4.359h-6.274v20.974h-6.2v-53.328
		h13.824C641.083,151.902,647.746,157.081,647.746,167.44z M620.134,178.93h5.581c5.495,0,9.472-0.887,11.928-2.663
		c2.456-1.775,3.684-4.62,3.684-8.535c0-3.526-1.155-6.152-3.465-7.879c-2.311-1.727-5.909-2.59-10.797-2.59h-6.931V178.93z"/>
	<path d="M703.576,205.229h-29.728v-53.328h29.728v5.508h-23.527v17.18h22.104v5.471h-22.104v19.624h23.527V205.229z"/>
	<path d="M760.792,151.902h6.675l-19.223,53.328h-6.128l-19.113-53.328h6.565l12.256,34.506c1.41,3.964,2.529,7.818,3.356,11.563
		c0.875-3.939,2.018-7.866,3.429-11.782L760.792,151.902z"/>
	<path d="M806.153,205.229h-6.201v-47.82h-16.889v-5.508h39.978v5.508h-16.888V205.229z"/>
	<path d="M876.1,191.04c0,4.693-1.702,8.353-5.106,10.979s-8.024,3.939-13.86,3.939c-6.323,0-11.187-0.814-14.591-2.444v-5.981
		c2.188,0.925,4.571,1.653,7.149,2.188c2.577,0.535,5.131,0.803,7.66,0.803c4.134,0,7.246-0.785,9.338-2.354
		c2.091-1.568,3.137-3.75,3.137-6.547c0-1.848-0.371-3.361-1.112-4.542c-0.742-1.179-1.982-2.267-3.721-3.264
		c-1.739-0.997-4.384-2.128-7.934-3.393c-4.961-1.775-8.505-3.878-10.633-6.31s-3.191-5.605-3.191-9.521
		c0-4.109,1.544-7.38,4.633-9.812c3.088-2.431,7.173-3.647,12.256-3.647c5.301,0,10.177,0.973,14.626,2.918l-1.933,5.398
		c-4.401-1.848-8.682-2.772-12.84-2.772c-3.282,0-5.849,0.706-7.696,2.116c-1.849,1.41-2.772,3.368-2.772,5.873
		c0,1.848,0.341,3.362,1.021,4.541c0.681,1.18,1.83,2.262,3.447,3.247s4.091,2.073,7.423,3.265c5.593,1.994,9.44,4.134,11.545,6.419
		C875.048,184.426,876.1,187.392,876.1,191.04z"/>
	<path d="M940.465,205.229h-7.296l-19.441-25.861l-5.581,4.96v20.901h-6.2v-53.328h6.2v26.445l24.184-26.445h7.332l-21.448,23.162
		L940.465,205.229z"/>
	<path d="M962.737,205.229v-53.328h6.2v53.328H962.737z"/>
</g>
<g>
	<path d="M412.651,309.375l-7.554-19.299h-24.321l-7.471,19.299h-7.139l23.989-60.928h5.935l23.865,60.928H412.651z
		 M402.897,283.725l-7.055-18.802c-0.914-2.379-1.854-5.298-2.822-8.757c-0.609,2.656-1.481,5.576-2.615,8.757l-7.139,18.802
		H402.897z"/>
	<path d="M516.676,309.375h-7.057v-54.412h-19.216v-6.267h45.488v6.267h-19.216V309.375z"/>
	<path d="M648.548,309.375h-33.826v-60.679h33.826v6.267h-26.77v19.549h25.15v6.226h-25.15v22.329h26.77V309.375z"/>
	<path d="M731.694,309.375v-60.679h7.057v54.287h26.77v6.392H731.694z"/>
	<path d="M836.674,325.353c-2.601,0-4.648-0.373-6.143-1.12v-6.019c1.965,0.554,4.013,0.83,6.143,0.83
		c2.739,0,4.821-0.83,6.246-2.49s2.138-4.054,2.138-7.18v-60.679h7.056v60.098c0,5.257-1.328,9.331-3.984,12.223
		S841.654,325.353,836.674,325.353z"/>
	<path d="M971.742,309.375h-33.826v-60.679h33.826v6.267h-26.77v19.549h25.15v6.226h-25.15v22.329h26.77V309.375z"/>
</g>
</svg>
