<?xml version="1.0" encoding="utf-8"?>
<!-- Generator: Adobe Illustrator 16.0.0, SVG Export Plug-In . SVG Version: 6.00 Build 0)  -->
<!DOCTYPE svg PUBLIC "-//W3C//DTD SVG 1.1//EN" "http://www.w3.org/Graphics/SVG/1.1/DTD/svg11.dtd">
<svg version="1.1" id="Layer_1" xmlns="http://www.w3.org/2000/svg" xmlns:xlink="http://www.w3.org/1999/xlink" x="0px" y="0px"
	 width="186.167px" height="189.057px" viewBox="0 0 186.167 189.057" enable-background="new 0 0 186.167 189.057"
	 xml:space="preserve">
<g>
	
		<line fill="none" stroke="#000000" stroke-width="1.8558" stroke-miterlimit="10" x1="94.166" y1="151.35" x2="94.166" y2="44.657"/>
	
		<line fill="none" stroke="#000000" stroke-width="1.8558" stroke-miterlimit="10" x1="67.749" y1="71.204" x2="94.422" y2="44.531"/>
	
		<line fill="none" stroke="#000000" stroke-width="1.8558" stroke-miterlimit="10" x1="120.642" y1="71.266" x2="93.968" y2="44.593"/>
	
		<line fill="none" stroke="#000000" stroke-width="1.8558" stroke-miterlimit="10" x1="67.689" y1="91.54" x2="94.363" y2="64.868"/>
	
		<line fill="none" stroke="#000000" stroke-width="1.8558" stroke-miterlimit="10" x1="120.642" y1="91.54" x2="93.968" y2="64.868"/>
	
		<line fill="none" stroke="#000000" stroke-width="1.8558" stroke-miterlimit="10" x1="67.689" y1="111.341" x2="94.363" y2="84.666"/>
	
		<line fill="none" stroke="#000000" stroke-width="1.8558" stroke-miterlimit="10" x1="120.642" y1="111.341" x2="93.968" y2="84.666"/>
	
		<line fill="none" stroke="#000000" stroke-width="1.8558" stroke-miterlimit="10" x1="67.689" y1="131.552" x2="94.363" y2="104.88"/>
	
		<line fill="none" stroke="#000000" stroke-width="1.8558" stroke-miterlimit="10" x1="120.642" y1="131.552" x2="93.968" y2="104.88"/>
	<polygon fill="none" stroke="#000000" stroke-width="1.8558" stroke-miterlimit="10" points="94.212,37.706 90.784,41.227 
		94.212,44.657 97.546,41.18 	"/>
</g>
<path fill="none" stroke="#000000" stroke-width="2" stroke-miterlimit="10" d="M183.054,94.528
	c0,49.093-39.795,88.889-88.888,88.889c-49.093,0-88.89-39.796-88.89-88.889c0-49.092,39.797-88.889,88.89-88.889
	C143.259,5.639,183.054,45.436,183.054,94.528z"/>
<path fill="none" d="M858.283,67.648C845.447-37.271,749.992-111.918,645.068-99.081C540.15-86.244,465.501,9.216,478.339,114.135
	c12.836,104.921,108.297,179.563,213.217,166.728C796.478,268.025,871.121,172.568,858.283,67.648z"/>
<path fill="none" d="M764.99,128.646c-6.902,82.82-79.637,144.361-162.459,137.46c-82.82-6.903-144.365-79.637-137.463-162.458
	S544.708-40.717,627.529-33.814C710.353-26.91,771.894,45.825,764.99,128.646z"/>
<circle fill="none" stroke="#000000" stroke-width="2" stroke-miterlimit="10" cx="94.166" cy="94.528" r="76.633"/>
</svg>
