<?xml version="1.0" encoding="utf-8"?>
<!-- Generator: Adobe Illustrator 16.0.0, SVG Export Plug-In . SVG Version: 6.00 Build 0)  -->
<!DOCTYPE svg PUBLIC "-//W3C//DTD SVG 1.1//EN" "http://www.w3.org/Graphics/SVG/1.1/DTD/svg11.dtd">
<svg version="1.1" id="Layer_1" xmlns="http://www.w3.org/2000/svg" xmlns:xlink="http://www.w3.org/1999/xlink" x="0px" y="0px"
	 width="502.583px" height="189.057px" viewBox="0 0 502.583 189.057" enable-background="new 0 0 502.583 189.057"
	 xml:space="preserve">
<g>
	
		<line fill="none" stroke="#000000" stroke-width="1.8558" stroke-miterlimit="10" x1="94.166" y1="151.35" x2="94.166" y2="44.657"/>
	
		<line fill="none" stroke="#000000" stroke-width="1.8558" stroke-miterlimit="10" x1="67.749" y1="71.204" x2="94.422" y2="44.531"/>
	
		<line fill="none" stroke="#000000" stroke-width="1.8558" stroke-miterlimit="10" x1="120.642" y1="71.266" x2="93.968" y2="44.593"/>
	
		<line fill="none" stroke="#000000" stroke-width="1.8558" stroke-miterlimit="10" x1="67.689" y1="91.54" x2="94.363" y2="64.868"/>
	
		<line fill="none" stroke="#000000" stroke-width="1.8558" stroke-miterlimit="10" x1="120.642" y1="91.54" x2="93.968" y2="64.868"/>
	
		<line fill="none" stroke="#000000" stroke-width="1.8558" stroke-miterlimit="10" x1="67.689" y1="111.341" x2="94.363" y2="84.666"/>
	
		<line fill="none" stroke="#000000" stroke-width="1.8558" stroke-miterlimit="10" x1="120.642" y1="111.341" x2="93.968" y2="84.666"/>
	
		<line fill="none" stroke="#000000" stroke-width="1.8558" stroke-miterlimit="10" x1="67.689" y1="131.552" x2="94.363" y2="104.88"/>
	
		<line fill="none" stroke="#000000" stroke-width="1.8558" stroke-miterlimit="10" x1="120.642" y1="131.552" x2="93.968" y2="104.88"/>
	<polygon fill="none" stroke="#000000" stroke-width="1.8558" stroke-miterlimit="10" points="94.212,37.706 90.784,41.227 
		94.212,44.657 97.546,41.18 	"/>
</g>
<path fill="none" stroke="#000000" stroke-width="2" stroke-miterlimit="10" d="M183.054,94.528
	c0,49.093-39.795,88.889-88.888,88.889c-49.093,0-88.89-39.796-88.89-88.889c0-49.092,39.797-88.889,88.89-88.889
	C143.259,5.639,183.054,45.436,183.054,94.528z"/>
<path fill="none" d="M858.283,67.648C845.447-37.271,749.992-111.918,645.068-99.081C540.15-86.244,465.501,9.216,478.339,114.135
	c12.836,104.921,108.297,179.563,213.217,166.728C796.478,268.025,871.121,172.568,858.283,67.648z"/>
<path fill="none" d="M764.99,128.646c-6.902,82.82-79.637,144.361-162.459,137.46c-82.82-6.903-144.365-79.637-137.463-162.458
	S544.708-40.717,627.529-33.814C710.353-26.91,771.894,45.825,764.99,128.646z"/>
<circle fill="none" stroke="#000000" stroke-width="2" stroke-miterlimit="10" cx="94.166" cy="94.528" r="76.633"/>
<g>
	<path d="M231.38,61.73h-11.386v29.16h-3.149V61.73H205.46v-2.79h25.92V61.73z"/>
	<path d="M257.75,88.1v2.79h-21.465V58.94h21.061v2.79H239.39v11.52h15.66v2.655h-15.66V88.1H257.75z"/>
	<path d="M263.87,90.89V58.94h13.455c1.38,0,2.655,0.292,3.825,0.878c1.17,0.585,2.175,1.35,3.015,2.295
		c0.84,0.945,1.492,2.018,1.958,3.217c0.465,1.2,0.697,2.416,0.697,3.645c0,1.17-0.173,2.288-0.518,3.353
		c-0.345,1.065-0.832,2.025-1.463,2.88c-0.63,0.855-1.38,1.575-2.25,2.16s-1.845,0.983-2.925,1.192l7.875,12.33h-3.555l-7.56-11.79
		h-9.45v11.79H263.87z M266.975,76.31h10.484c0.93,0,1.778-0.203,2.543-0.607s1.417-0.952,1.957-1.643
		c0.54-0.689,0.96-1.469,1.261-2.34c0.299-0.87,0.449-1.785,0.449-2.745c0-0.96-0.173-1.882-0.518-2.768
		c-0.345-0.884-0.81-1.657-1.395-2.317c-0.585-0.66-1.275-1.185-2.07-1.575c-0.795-0.389-1.627-0.585-2.497-0.585h-10.215V76.31z"/>
	<path d="M289.834,90.89L303.2,58.94h2.565l13.364,31.95h-3.375l-4.14-9.99h-14.355l-4.095,9.99H289.834z M304.504,62.631
		l-6.569,15.795h12.96L304.504,62.631z"/>
	<path d="M323.763,90.89V58.94h13.23c1.379,0,2.647,0.292,3.802,0.878c1.155,0.585,2.152,1.35,2.993,2.295
		c0.839,0.945,1.492,2.018,1.957,3.217c0.465,1.2,0.698,2.416,0.698,3.645c0,1.32-0.219,2.587-0.653,3.803
		c-0.435,1.215-1.058,2.288-1.867,3.217c-0.81,0.93-1.777,1.681-2.902,2.25c-1.125,0.57-2.378,0.855-3.758,0.855h-10.395v11.79
		H323.763z M326.869,76.31h10.215c0.93,0,1.777-0.203,2.542-0.607c0.766-0.405,1.418-0.945,1.958-1.62
		c0.54-0.675,0.96-1.455,1.26-2.34c0.3-0.885,0.45-1.807,0.45-2.768c0-0.99-0.173-1.927-0.518-2.813
		c-0.346-0.884-0.81-1.657-1.395-2.317c-0.586-0.66-1.276-1.177-2.07-1.553c-0.795-0.375-1.628-0.563-2.498-0.563h-9.944V76.31z"/>
	<path d="M373.172,88.1v2.79h-21.465V58.94h21.061v2.79h-17.955v11.52h15.66v2.655h-15.66V88.1H373.172z"/>
	<path d="M379.068,58.94l11.43,28.035l11.34-28.035h3.33l-13.319,31.95h-2.745l-13.32-31.95H379.068z"/>
	<path d="M432.482,61.73h-11.386v29.16h-3.149V61.73h-11.385v-2.79h25.92V61.73z"/>
	<path d="M455.748,64.926c-0.9-1.02-2.108-1.845-3.623-2.475s-3.218-0.945-5.107-0.945c-2.851,0-4.921,0.533-6.21,1.597
		c-1.29,1.065-1.935,2.513-1.935,4.343c0,0.96,0.172,1.748,0.517,2.362c0.345,0.615,0.885,1.147,1.62,1.598
		c0.735,0.45,1.665,0.84,2.79,1.17c1.125,0.331,2.453,0.66,3.982,0.99c1.71,0.36,3.24,0.758,4.591,1.193
		c1.35,0.435,2.504,0.99,3.465,1.665c0.96,0.675,1.694,1.5,2.205,2.475c0.51,0.976,0.765,2.183,0.765,3.623
		c0,1.47-0.285,2.745-0.855,3.825c-0.569,1.08-1.365,1.98-2.385,2.7c-1.02,0.72-2.235,1.253-3.645,1.598
		c-1.411,0.345-2.94,0.518-4.59,0.518c-5.011,0-9.286-1.545-12.825-4.635l1.53-2.565c1.17,1.23,2.744,2.272,4.725,3.127
		c1.979,0.855,4.185,1.283,6.615,1.283c2.549,0,4.545-0.457,5.984-1.373c1.44-0.915,2.16-2.302,2.16-4.163
		c0-0.99-0.202-1.822-0.607-2.498c-0.405-0.675-1.013-1.26-1.822-1.755c-0.811-0.495-1.822-0.922-3.038-1.282
		c-1.215-0.36-2.617-0.72-4.207-1.08c-1.681-0.39-3.15-0.794-4.41-1.215c-1.26-0.42-2.317-0.945-3.173-1.575
		c-0.854-0.63-1.5-1.387-1.935-2.272c-0.436-0.885-0.652-1.972-0.652-3.263c0-1.469,0.277-2.782,0.832-3.938
		c0.555-1.154,1.335-2.115,2.341-2.88c1.004-0.765,2.204-1.35,3.6-1.755c1.395-0.405,2.932-0.607,4.612-0.607
		c2.1,0,3.982,0.323,5.647,0.967c1.665,0.646,3.173,1.553,4.522,2.723L455.748,64.926z"/>
	<path d="M464.522,90.89V58.986h3.105v18.54l17.595-18.585h3.465l-13.05,14.04l13.77,17.91h-3.465l-12.239-16.065l-6.075,6.255v9.81
		H464.522z"/>
	<path d="M493.367,90.89V58.986h3.105V90.89H493.367z"/>
</g>
<g>
	<path d="M205.28,137.89l13.365-31.95h2.565l13.364,31.95H231.2l-4.14-9.99h-14.355l-4.095,9.99H205.28z M219.95,109.631
		l-6.569,15.795h12.96L219.95,109.631z"/>
	<path d="M258.74,108.73h-11.386v29.16h-3.149v-29.16H232.82v-2.79h25.92V108.73z"/>
	<path d="M285.109,135.1v2.79h-21.465v-31.95h21.061v2.79H266.75v11.521h15.66v2.654h-15.66V135.1H285.109z"/>
	<path d="M291.229,137.89v-31.95h3.105v29.16h18.495v2.79H291.229z"/>
	<path d="M315.439,133.885c0.659,0.449,1.508,0.84,2.543,1.17c1.034,0.33,2.197,0.495,3.487,0.495c1.62,0,2.917-0.292,3.893-0.878
		c0.975-0.585,1.717-1.447,2.228-2.588c0.51-1.139,0.839-2.542,0.989-4.207s0.226-3.563,0.226-5.692v-16.2h3.149v16.2
		c0,2.431-0.112,4.643-0.337,6.638c-0.226,1.995-0.697,3.697-1.418,5.107c-0.72,1.41-1.771,2.506-3.149,3.285
		c-1.381,0.779-3.24,1.17-5.58,1.17c-2.7,0-5.011-0.66-6.931-1.98L315.439,133.885z"/>
	<path d="M361.113,135.1v2.79h-21.465v-31.95h21.061v2.79h-17.955v11.521h15.66v2.654h-15.66V135.1H361.113z"/>
</g>
</svg>
