<?xml version="1.0" encoding="utf-8"?>
<!-- Generator: Adobe Illustrator 16.0.0, SVG Export Plug-In . SVG Version: 6.00 Build 0)  -->
<!DOCTYPE svg PUBLIC "-//W3C//DTD SVG 1.1//EN" "http://www.w3.org/Graphics/SVG/1.1/DTD/svg11.dtd">
<svg version="1.1" id="Layer_1" xmlns="http://www.w3.org/2000/svg" xmlns:xlink="http://www.w3.org/1999/xlink" x="0px" y="0px"
	 width="393.334px" height="393.111px" viewBox="0 0 393.334 393.111" enable-background="new 0 0 393.334 393.111"
	 xml:space="preserve">
<g>
	
		<line fill="#FFFFFF" stroke="#000000" stroke-width="4" stroke-miterlimit="10" x1="196.39" y1="328.242" x2="196.39" y2="80.664"/>
	
		<line fill="#FFFFFF" stroke="#000000" stroke-width="4" stroke-miterlimit="10" x1="135.092" y1="142.266" x2="196.986" y2="80.372"/>
	
		<line fill="#FFFFFF" stroke="#000000" stroke-width="4" stroke-miterlimit="10" x1="257.828" y1="142.41" x2="195.932" y2="80.515"/>
	
		<line fill="#FFFFFF" stroke="#000000" stroke-width="4" stroke-miterlimit="10" x1="134.952" y1="189.457" x2="196.846" y2="127.563"/>
	
		<line fill="#FFFFFF" stroke="#000000" stroke-width="4" stroke-miterlimit="10" x1="257.828" y1="189.457" x2="195.932" y2="127.563"/>
	
		<line fill="#FFFFFF" stroke="#000000" stroke-width="4" stroke-miterlimit="10" x1="134.952" y1="235.4" x2="196.846" y2="173.504"/>
	
		<line fill="#FFFFFF" stroke="#000000" stroke-width="4" stroke-miterlimit="10" x1="257.828" y1="235.4" x2="195.932" y2="173.504"/>
	
		<line fill="#FFFFFF" stroke="#000000" stroke-width="4" stroke-miterlimit="10" x1="134.952" y1="282.299" x2="196.846" y2="220.404"/>
	
		<line fill="#FFFFFF" stroke="#000000" stroke-width="4" stroke-miterlimit="10" x1="257.828" y1="282.299" x2="195.932" y2="220.404"/>
	<polygon fill="none" stroke="#000000" stroke-width="4" stroke-miterlimit="10" points="196.499,64.534 188.544,72.708 
		196.499,80.664 204.234,72.598 	"/>
</g>
<path fill="none" stroke="#000000" stroke-width="4" stroke-miterlimit="10" d="M387.779,196.389
	c0,105.702-85.684,191.388-191.388,191.388C90.689,387.776,5,302.091,5,196.389C5,90.688,90.689,5,196.391,5
	C302.095,5,387.779,90.688,387.779,196.389z"/>
</svg>
