<?xml version="1.0" encoding="utf-8"?>
<!-- Generator: Adobe Illustrator 16.0.0, SVG Export Plug-In . SVG Version: 6.00 Build 0)  -->
<!DOCTYPE svg PUBLIC "-//W3C//DTD SVG 1.1//EN" "http://www.w3.org/Graphics/SVG/1.1/DTD/svg11.dtd">
<svg version="1.1" id="Layer_1" xmlns="http://www.w3.org/2000/svg" xmlns:xlink="http://www.w3.org/1999/xlink" x="0px" y="0px"
	 width="1011.167px" height="358.056px" viewBox="0 35.055 1011.167 358.056" enable-background="new 0 35.055 1011.167 358.056"
	 xml:space="preserve">
<g>
	
		<line fill="none" stroke="#000000" stroke-width="5.794" stroke-miterlimit="10" x1="176.674" y1="334.375" x2="176.674" y2="112.301"/>
	
		<line fill="none" stroke="#000000" stroke-width="5.794" stroke-miterlimit="10" x1="121.69" y1="167.556" x2="177.209" y2="112.038"/>
	
		<line fill="none" stroke="#000000" stroke-width="5.794" stroke-miterlimit="10" x1="231.784" y1="167.686" x2="176.264" y2="112.166"/>
	
		<line fill="none" stroke="#000000" stroke-width="5.794" stroke-miterlimit="10" x1="121.565" y1="209.885" x2="177.083" y2="154.369"/>
	
		<line fill="none" stroke="#000000" stroke-width="5.794" stroke-miterlimit="10" x1="231.784" y1="209.885" x2="176.264" y2="154.369"/>
	
		<line fill="none" stroke="#000000" stroke-width="5.794" stroke-miterlimit="10" x1="121.565" y1="251.096" x2="177.083" y2="195.575"/>
	
		<line fill="none" stroke="#000000" stroke-width="5.794" stroke-miterlimit="10" x1="231.784" y1="251.096" x2="176.264" y2="195.575"/>
	
		<line fill="none" stroke="#000000" stroke-width="5.794" stroke-miterlimit="10" x1="121.565" y1="293.165" x2="177.083" y2="237.646"/>
	
		<line fill="none" stroke="#000000" stroke-width="5.794" stroke-miterlimit="10" x1="231.784" y1="293.165" x2="176.264" y2="237.646"/>
	<polygon fill="none" stroke="#000000" stroke-width="5.794" stroke-miterlimit="10" points="176.772,97.833 169.636,105.164 
		176.772,112.301 183.71,105.065 	"/>
</g>
<path fill="none" stroke="#000000" stroke-width="7.7253" stroke-miterlimit="10" d="M348.347,216.104
	c0,94.814-76.856,171.673-171.671,171.673C81.861,387.777,5,310.919,5,216.104C5,121.292,81.861,44.43,176.675,44.43
	C271.49,44.43,348.347,121.292,348.347,216.104z"/>
<circle fill="none" stroke="#000000" stroke-width="3.8627" stroke-miterlimit="10" cx="176.674" cy="216.104" r="148.003"/>
<g>
	<path d="M420.903,215.537h-8.337v-64.288h-22.704v-7.405h53.745v7.405h-22.704V215.537z"/>
	<path d="M494.362,215.537h-39.967v-71.693h39.967v7.405h-31.63v23.097h29.717v7.355h-29.717v26.381h31.63V215.537z"/>
	<path d="M518.585,185.721v29.815h-8.335v-71.693h19.664c8.794,0,15.291,1.683,19.492,5.05c4.2,3.368,6.301,8.435,6.301,15.202
		c0,9.482-4.806,15.889-14.415,19.224l19.467,32.217h-9.857l-17.359-29.815H518.585z M518.585,178.562h11.427
		c5.884,0,10.2-1.169,12.946-3.506c2.745-2.337,4.119-5.843,4.119-10.519c0-4.739-1.398-8.157-4.192-10.248
		c-2.796-2.091-7.282-3.138-13.46-3.138h-10.84V178.562z"/>
	<path d="M617.397,215.537l-8.925-22.803h-28.737l-8.825,22.803h-8.435l28.342-71.987h7.014l28.196,71.987H617.397z
		 M605.874,185.231l-8.337-22.213c-1.079-2.812-2.189-6.26-3.336-10.348c-0.717,3.14-1.747,6.589-3.088,10.348l-8.436,22.213
		H605.874z"/>
	<path d="M681.343,164.733c0,7.258-2.477,12.84-7.429,16.746c-4.953,3.908-12.04,5.86-21.259,5.86h-8.435v28.198h-8.337v-71.693
		h18.587C672.385,143.844,681.343,150.806,681.343,164.733z M644.221,180.179h7.503c7.387,0,12.732-1.192,16.034-3.579
		c3.304-2.386,4.953-6.211,4.953-11.475c0-4.74-1.552-8.271-4.657-10.592c-3.107-2.322-7.945-3.482-14.517-3.482h-9.316V180.179z"/>
	<path d="M736.313,215.537h-39.964v-71.693h39.964v7.405h-31.628v23.097h29.717v7.355h-29.717v26.381h31.628V215.537z"/>
	<path d="M793.148,143.844h8.974l-25.843,71.693h-8.238l-25.696-71.693h8.826l16.478,46.39c1.896,5.328,3.399,10.51,4.511,15.544
		c1.178-5.296,2.715-10.576,4.61-15.84L793.148,143.844z"/>
	<path d="M834.045,215.537h-8.337v-64.288h-22.704v-7.405h53.745v7.405h-22.704V215.537z"/>
	<path d="M907.994,196.46c0,6.311-2.288,11.229-6.866,14.762c-4.577,3.53-10.787,5.295-18.635,5.295
		c-8.5,0-15.037-1.096-19.614-3.285v-8.042c2.943,1.244,6.147,2.224,9.612,2.942c3.465,0.72,6.896,1.078,10.298,1.078
		c5.558,0,9.741-1.054,12.554-3.162c2.811-2.108,4.217-5.044,4.217-8.803c0-2.484-0.498-4.52-1.496-6.104
		c-0.998-1.586-2.664-3.048-5.002-4.389c-2.337-1.341-5.892-2.861-10.665-4.561c-6.669-2.386-11.434-5.215-14.295-8.483
		c-2.861-3.268-4.29-7.535-4.29-12.798c0-5.525,2.076-9.923,6.228-13.191c4.15-3.27,9.644-4.905,16.477-4.905
		c7.128,0,13.681,1.307,19.664,3.923l-2.6,7.258c-5.916-2.485-11.67-3.728-17.261-3.728c-4.413,0-7.862,0.948-10.348,2.844
		c-2.483,1.896-3.726,4.527-3.726,7.895c0,2.485,0.458,4.519,1.372,6.105c0.916,1.586,2.459,3.042,4.635,4.365
		c2.174,1.324,5.499,2.788,9.979,4.388c7.521,2.681,12.694,5.56,15.52,8.632C906.579,187.568,907.994,191.557,907.994,196.46z"/>
	<path d="M974.44,215.537h-9.809l-26.137-34.768l-7.504,6.669v28.099h-8.336v-71.693h8.336v35.551l32.514-35.551h9.855
		l-28.834,31.139L974.44,215.537z"/>
	<path d="M984.296,215.537v-71.693h8.337v71.693H984.296z"/>
</g>
<g>
	<path d="M441.892,311.393l-5.198-17.064h-26.137l-5.198,17.064h-16.379l25.303-71.986h18.586l25.401,71.986H441.892z
		 M433.063,281.578c-4.805-15.463-7.509-24.207-8.115-26.234c-0.604-2.027-1.037-3.629-1.299-4.806
		c-1.079,4.186-4.169,14.532-9.269,31.04H433.063z"/>
	<path d="M551.191,311.393h-15.202v-59.042h-19.467V239.7h54.136v12.651h-19.467V311.393z"/>
	<path d="M679.224,311.393h-41.291V239.7h41.291v12.456h-26.091v15.741h24.275v12.455h-24.275v18.488h26.091V311.393z"/>
	<path d="M750.419,311.393V239.7h15.201v59.141h29.079v12.553H750.419z"/>
	<path d="M855.894,332.48c-3.434,0-6.425-0.361-8.974-1.08v-12.651c2.616,0.654,5.001,0.981,7.159,0.981
		c3.334,0,5.721-1.037,7.159-3.114c1.439-2.076,2.158-5.32,2.158-9.734V239.7h15.201v67.084c0,8.368-1.913,14.743-5.737,19.124
		C869.034,330.291,863.378,332.48,855.894,332.48z"/>
	<path d="M994.172,311.393h-41.29V239.7h41.29v12.456h-26.088v15.741h24.273v12.455h-24.273v18.488h26.088V311.393z"/>
</g>
</svg>
