<?xml version="1.0" encoding="utf-8"?>
<!-- Generator: Adobe Illustrator 16.0.0, SVG Export Plug-In . SVG Version: 6.00 Build 0)  -->
<!DOCTYPE svg PUBLIC "-//W3C//DTD SVG 1.1//EN" "http://www.w3.org/Graphics/SVG/1.1/DTD/svg11.dtd">
<svg version="1.1" id="Layer_1" xmlns="http://www.w3.org/2000/svg" xmlns:xlink="http://www.w3.org/1999/xlink" x="0px" y="0px"
	 width="138px" height="112px" viewBox="0 0 138 112" enable-background="new 0 0 138 112" xml:space="preserve">
<g>
	<g>
		<g id="XMLID_1_">
			<g>
				<path d="M87.843,61.468c-2.396-1.162-3.353-3.1-3.509-5.652c-0.09-1.445-0.403-2.877-0.584-4.069
					c0.656-0.896,1.313-1.751,1.926-2.63c0.47-0.686,0.819-1.475,1.354-2.101c1.523-1.782,4.334-2.01,6.398-0.59
					c1.258,0.867,1.409,2.576,0.307,4.46c-0.301,0.511-0.71,1.047-1.21,1.336c-1.475,0.861-3.021,1.602-5.123,2.697
					c0.084,0.729,0.061,1.866,0.379,2.901c0.452,1.481,1.234,1.746,2.576,1.017c1.264-0.68,2.492-1.433,3.702-2.215
					c1.324-0.855,2.106-2.071,2.522-3.636c0.945-3.594,1.896-7.193,3.076-10.714c1.951-5.851,4.413-11.479,8.066-16.493
					c0.927-1.27,2.035-2.456,3.245-3.461c1.511-1.258,3.016-1.252,4.4-0.361c1.541,0.993,2.035,2.396,1.613,4.129
					c-0.229,0.957-0.463,1.938-0.885,2.817c-2.269,4.713-4.611,9.384-6.898,14.091c-2.239,4.605-4.9,8.878-8.915,12.189
					c-2.01,1.661-2.101,3.455-0.439,5.905c1.041-0.421,2.125-0.861,2.955-1.198c0.385-1.493,0.512-2.739,1.011-3.811
					c2.077-4.472,5.568-7.53,10.053-9.396c2.486-1.035,5.478,0.494,6.784,3.521c-1.054-0.199-1.932-0.205-2.661-0.542
					c-1.631-0.752-3.118-0.523-4.515,0.434c-1.246,0.854-2.522,1.715-3.6,2.763c-1.017,0.999-1.8,2.245-2.685,3.383
					c0.193,0.163,0.379,0.319,0.572,0.481c1.673-1.595,3.413-3.136,5.002-4.821c0.909-0.957,1.697-1.709,3.1-1.017
					c1.27,0.626,1.288,1.601,1.168,2.859c-0.132,1.354,0.12,2.751,0.241,4.689c1.619-0.728,2.781-1.047,3.708-1.709
					c2.287-1.625,4.497-3.353,6.664-5.128c1.77-1.451,3.678-2.486,5.977-2.811c-0.024,0.223,0.018,0.41-0.06,0.506
					c-3.491,4.484-8.084,7.747-12.515,11.148c-2.215,1.691-5.086,0.644-6.591-1.866c-0.416-0.698-0.777-1.427-1.126-2.077
					c-0.252,0.03-0.349,0.012-0.397,0.054c-1.162,0.969-2.275,1.999-3.485,2.901c-0.897,0.668-1.872,1.258-2.883,1.728
					c-1.065,0.5-2.275,0.704-3.316,1.234c-2.51,1.282-4.647,1.234-6.278-0.452c-0.65-0.668-1.042-1.595-1.613-2.498
					c-0.59,0.397-1.083,0.729-1.577,1.054C91.948,61.739,90.088,62.552,87.843,61.468z M100.237,50.127
					c3.509-1.679,13.88-21.14,13.507-25.498c-2.107,0.878-3.334,2.419-4.412,4.009c-1.27,1.866-2.498,3.822-3.377,5.893
					c-1.884,4.46-3.533,9.017-5.255,13.55C100.465,48.689,100.405,49.369,100.237,50.127z"/>
				<path d="M60.924,87.05c-2.841-0.06-3.106-0.385-2.45-3.154c0.265-1.107,0.548-2.209,0.813-3.311
					c1.957-8.186,4.021-16.354,5.809-24.577c0.536-2.462,0.307-5.092,0.445-8.09c-1.107,0.397-1.631,0.506-2.07,0.758l-0.62-1.089
					c1.812-1.029,3.612-2.077,5.394-3.16c3.443-2.101,10.401-1.24,12.514,0.794c1.318,1.264,1.788,2.727,1.167,4.292
					c-1.408,3.576-6.856,6.164-10.461,4.894c-0.734-0.265-1.342-0.903-2.004-1.372c0.078-0.229,0.15-0.464,0.229-0.692
					c0.758-0.042,1.541-0.211,2.275-0.096c2.366,0.355,4.984-0.795,6.206-2.841c1.198-2.004,0.614-3.341-1.686-3.744
					c-0.813-0.145-1.655-0.187-2.486-0.156c-3.527,0.114-5.321,1.974-5.556,5.538c-0.042,0.632-0.078,1.27-0.12,1.908
					c-0.121,1.794-0.271,3.594-0.662,5.333C65.505,67.879,63.188,77.443,60.924,87.05z"/>
				<path d="M57.427,5.651c0.331,0.187,0.217,1.318,0.168,2.01c-0.048,0.74-0.265,1.475-0.409,2.209
					c0.187,0.121,0.367,0.235,0.547,0.355c1.523-1.047,2.992-2.179,4.581-3.106c1.535-0.891,2.775-2.75,4.875-2.106
					c0.096,0.229,0.193,0.458,0.289,0.686c-1.192,1.005-2.372,2.022-3.582,3.01c-1.986,1.619-3.973,3.25-6.001,4.815
					c-0.939,0.722-2.034,1.06-3.166,0.385c-1.047-0.614-1.234-1.595-1.162-2.745c0.09-1.433-0.054-2.883,0.108-4.304
					c0.072-0.638,0.583-1.667,1.011-1.728C55.573,4.995,56.639,5.211,57.427,5.651z"/>
				<path d="M7.557,99.053c4.045,4.153,8.909,6.585,14.724,6.598c5.833,0.012,9.944-3.131,12.917-7.939
					c3.587-5.809,5.682-12.238,7.271-18.805c1.264-5.225,2.161-10.54,3.166-15.819c0.205-1.078,0.168-2.203,0.277-3.75
					c-2.654,1.324-4.779,2.281-6.802,3.419c-3.485,1.956-6.958,3.955-10.354,6.067C21.203,73.525,14.359,79.069,8.996,86.28
					c-1.649,2.221-2.914,4.599-3.281,7.398C5.444,95.803,6.094,97.548,7.557,99.053z M6.853,101.864
					c-4.671-3.883-5.52-7.867-2.708-13.243c3.082-5.887,7.987-10.076,13.062-14.043c7.361-5.754,15.391-10.456,23.764-14.573
					c1.487-0.729,2.883-1.655,4.274-2.57c0.397-0.265,0.873-0.8,0.879-1.216c0.072-3.317,0.042-6.627,0.042-10.046
					c-0.253,0.012-0.644-0.048-0.963,0.072c-5.092,1.914-9.848,0.957-14.253-1.902c-4.352-2.829-7.121-7.621-5.604-13.05
					c0.325-1.167,0.469-2.456,1.059-3.473c1.523-2.6,3.046-5.249,4.948-7.56c1.613-1.957,3.268-1.86,5.002-0.41
					c-0.825,0.5-1.818,0.849-2.462,1.535c-2.516,2.672-4.665,5.64-5.562,9.264c-1.162,4.671-0.132,8.728,3.822,11.786
					c4.087,3.154,9.312,3.618,13.128,1.059c1.156-0.776,1.378-1.631,1.523-2.781c0.445-3.533,0.596-7.157,1.499-10.57
					c0.909-3.407,2.36-6.724,4.009-9.842c1.168-2.197,3.931-2.817,6.2-2.161c2.414,0.705,2.667,2.745,2.787,4.719
					c0.325,5.297-0.963,10.088-4.737,14.019c-1.944,2.022-3.889,4.039-5.803,6.085c-0.452,0.482-1.09,1.078-1.108,1.638
					c-0.102,3.371-0.054,6.748-0.054,10.317c0.59-0.277,1.191-0.523,1.757-0.836c1.649-0.915,3.292-1.854,4.936-2.787
					c2.179-1.246,4.376-2.468,6.561-3.708l0.62,1.089c-2.811,1.62-5.64,3.208-8.385,4.93c-3.058,1.914-6.08,3.311-6.417,8.102
					c-0.584,8.307-2.708,16.451-5.141,24.45c-1.487,4.894-3.437,9.583-6.398,13.772c-2.721,3.858-6.254,6.64-11.021,7.344
					C18.927,108.329,12.493,106.577,6.853,101.864z M49.933,38.896c6.182-4.099,10.088-12.689,7.621-18.443
					c-2.137-0.174-3.1,1.42-3.708,2.974c-1.156,2.95-2.125,5.989-2.932,9.059C50.373,34.562,50.246,36.752,49.933,38.896z"/>
			</g>
			<g>
			</g>
		</g>
	</g>
	<path fill="#FFFFFF" d="M87.637,51.258c0,0,1.104,0.102,2.508-0.701c1.405-0.801,2.109-1.003,1.606-1.604
		c-0.502-0.602,0-0.702-1.505,0S87.637,51.258,87.637,51.258z"/>
</g>
</svg>
